<svg width="127" height="164" viewBox="0 0 127 164" fill="none" xmlns="http://www.w3.org/2000/svg">
<path d="M63.1 163.7C63.7 163.7 64.2 163.5 64.7 163.1L111.5 116.3C119.9 107.9 125.4 96.8 126.1 84.9C126.9 71.1 121.9 58.1 112.3 48.4L95.5 31.5C94.6 30.6 93.2 30.6 92.3 31.5L65 58.9C63.8 60.1 63.1 61.7 63.1 63.5V90.4C63.1 91.8 64.8 92.5 65.8 91.5L94.6 63.1C104.5 74.2 104.1 91.2 93.5 101.9L64.6 130.8C64.2 131.2 63.6 131.4 63 131.4L63.1 163.7Z" fill="#00DFC3"/>
<path d="M61.5 130.8L32.6 101.9C21.6 91 21.6 73.1 32.5 62.1L32.6 62L61.9 32.7C62.8 31.8 63.4 30.5 63.4 29.2V2.6C63.4 1.2 61.6 0.399999 60.6 1.5L13.9 48.5C-4.59998 67 -4.59998 97.1 13.9 115.7L61.5 163.3C61.9 163.7 62.5 163.9 63.1 163.9V131.6C62.5 131.4 62 131.2 61.5 130.8Z" fill="#007B98"/>
</svg>
