<svg width="250" height="250" viewBox="0 0 250 250" fill="none" xmlns="http://www.w3.org/2000/svg">
<rect x="12.5" y="12.5" width="225" height="225" fill="white" stroke="black" stroke-width="25"/>
<rect x="40" y="170" width="40" height="40" stroke="black" stroke-width="10"/>
<rect x="55" y="185" width="10" height="10" fill="black"/>
<rect x="165" y="205" width="10" height="10" fill="black"/>
<rect x="165" y="165" width="10" height="10" fill="black"/>
<rect x="205" y="205" width="10" height="10" fill="black"/>
<rect x="205" y="165" width="10" height="10" fill="black"/>
<rect x="185" y="185" width="10" height="10" fill="black"/>
<rect x="185" y="165" width="10" height="10" fill="black"/>
<rect x="205" y="185" width="10" height="10" fill="black"/>
<rect x="185" y="205" width="10" height="10" fill="black"/>
<rect x="165" y="185" width="10" height="10" fill="black"/>
<path d="M40 40H80V80H40V40Z" stroke="black" stroke-width="10"/>
<rect x="55" y="55" width="10" height="10" fill="black"/>
<rect x="170" y="40" width="40" height="40" stroke="black" stroke-width="10"/>
<rect x="185" y="55" width="10" height="10" fill="black"/>
<rect x="120" y="120" width="10" height="10" fill="black"/>
<rect x="110" y="120" width="10" height="10" fill="black"/>
<path d="M120 110H130V120H120V110Z" fill="black"/>
<rect x="120" y="130" width="10" height="10" fill="black"/>
<rect x="130" y="120" width="10" height="10" fill="black"/>
<rect x="105" y="105" width="40" height="40" stroke="black" stroke-width="10"/>
</svg>
