{
  "accessors": [
    {
      "bufferView": 2,
      "componentType": 5126,
      "count": 7035,
      "max": [
        0.11445900052785873,
        -0.4785830080509186,
        3.1695520877838135
      ],
      "min": [
        -0.09963899850845337,
        -0.769881010055542,
        2.9162960052490234
      ],
      "type": "VEC3"
    },
    {
      "bufferView": 2,
      "byteOffset": 84420,
      "componentType": 5126,
      "count": 7035,
      "type": "VEC3"
    },
    {
      "bufferView": 1,
      "componentType": 5126,
      "count": 7035,
      "type": "VEC2"
    },
    {
      "bufferView": 0,
      "componentType": 5125,
      "count": 10608,
      "type": "SCALAR"
    },
    {
      "bufferView": 2,
      "byteOffset": 168840,
      "componentType": 5126,
      "count": 50509,
      "max": [
        0.9498969912528992,
        0.9746279716491699,
        3.588371992111206
      ],
      "min": [
        -0.9498969912528992,
        -0.9746289849281311,
        -0.009595000185072422
      ],
      "type": "VEC3"
    },
    {
      "bufferView": 2,
      "byteOffset": 774948,
      "componentType": 5126,
      "count": 50509,
      "type": "VEC3"
    },
    {
      "bufferView": 1,
      "byteOffset": 56280,
      "componentType": 5126,
      "count": 50509,
      "type": "VEC2"
    },
    {
      "bufferView": 0,
      "byteOffset": 42432,
      "componentType": 5125,
      "count": 297582,
      "type": "SCALAR"
    },
    {
      "bufferView": 2,
      "byteOffset": 1381056,
      "componentType": 5126,
      "count": 330,
      "max": [
        0.3279240131378174,
        0.3140060007572174,
        3.6855928897857666
      ],
      "min": [
        -0.3279240131378174,
        -0.3999890089035034,
        3.498974084854126
      ],
      "type": "VEC3"
    },
    {
      "bufferView": 2,
      "byteOffset": 1385016,
      "componentType": 5126,
      "count": 330,
      "type": "VEC3"
    },
    {
      "bufferView": 1,
      "byteOffset": 460352,
      "componentType": 5126,
      "count": 330,
      "type": "VEC2"
    },
    {
      "bufferView": 0,
      "byteOffset": 1232760,
      "componentType": 5125,
      "count": 1536,
      "type": "SCALAR"
    },
    {
      "bufferView": 2,
      "byteOffset": 1388976,
      "componentType": 5126,
      "count": 2288,
      "max": [
        0.5352259874343872,
        0.5503829717636108,
        3.9071969985961914
      ],
      "min": [
        -0.5352259874343872,
        -0.6255360245704651,
        3.4082939624786377
      ],
      "type": "VEC3"
    },
    {
      "bufferView": 2,
      "byteOffset": 1416432,
      "componentType": 5126,
      "count": 2288,
      "type": "VEC3"
    },
    {
      "bufferView": 1,
      "byteOffset": 462992,
      "componentType": 5126,
      "count": 2288,
      "type": "VEC2"
    },
    {
      "bufferView": 0,
      "byteOffset": 1238904,
      "componentType": 5125,
      "count": 12714,
      "type": "SCALAR"
    },
    {
      "bufferView": 2,
      "byteOffset": 1443888,
      "componentType": 5126,
      "count": 65532,
      "max": [
        2.1826539039611816,
        0.046477001160383224,
        2.555609941482544
      ],
      "min": [
        -2.1826539039611816,
        -0.24993300437927246,
        2.247230052947998
      ],
      "type": "VEC3"
    },
    {
      "bufferView": 2,
      "byteOffset": 2230272,
      "componentType": 5126,
      "count": 65532,
      "type": "VEC3"
    },
    {
      "bufferView": 1,
      "byteOffset": 481296,
      "componentType": 5126,
      "count": 65532,
      "type": "VEC2"
    },
    {
      "bufferView": 0,
      "byteOffset": 1289760,
      "componentType": 5125,
      "count": 98298,
      "type": "SCALAR"
    },
    {
      "bufferView": 2,
      "byteOffset": 3016656,
      "componentType": 5126,
      "count": 772,
      "max": [
        -0.5266780257225037,
        0.013605999760329723,
        2.448983907699585
      ],
      "min": [
        -1.6152650117874146,
        -0.04460800066590309,
        2.35223388671875
      ],
      "type": "VEC3"
    },
    {
      "bufferView": 2,
      "byteOffset": 3025920,
      "componentType": 5126,
      "count": 772,
      "type": "VEC3"
    },
    {
      "bufferView": 1,
      "byteOffset": 1005552,
      "componentType": 5126,
      "count": 772,
      "type": "VEC2"
    },
    {
      "bufferView": 0,
      "byteOffset": 1682952,
      "componentType": 5125,
      "count": 1158,
      "type": "SCALAR"
    },
    {
      "bufferView": 2,
      "byteOffset": 3035184,
      "componentType": 5126,
      "count": 2400,
      "max": [
        0.25635600090026855,
        -0.32531601190567017,
        3.2605230808258057
      ],
      "min": [
        -0.25635701417922974,
        -0.7295339703559875,
        1.7845200300216675
      ],
      "type": "VEC3"
    },
    {
      "bufferView": 2,
      "byteOffset": 3063984,
      "componentType": 5126,
      "count": 2400,
      "type": "VEC3"
    },
    {
      "bufferView": 1,
      "byteOffset": 1011728,
      "componentType": 5126,
      "count": 2400,
      "type": "VEC2"
    },
    {
      "bufferView": 0,
      "byteOffset": 1687584,
      "componentType": 5125,
      "count": 3360,
      "type": "SCALAR"
    }
  ],
  "asset": {
    "generator": "fab-model-conversion",
    "version": "2.0"
  },
  "bufferViews": [
    {
      "buffer": 0,
      "byteLength": 1701024,
      "target": 34963
    },
    {
      "buffer": 0,
      "byteLength": 1030928,
      "byteOffset": 1701024,
      "byteStride": 8,
      "target": 34962
    },
    {
      "buffer": 0,
      "byteLength": 3092784,
      "byteOffset": 2731952,
      "byteStride": 12,
      "target": 34962
    }
  ],
  "buffers": [
    {
      "byteLength": 5824736,
      "uri": "scene.bin"
    }
  ],
  "images": [
    {
      "uri": "textures/Carrot_baseColor.jpeg"
    },
    {
      "uri": "textures/branch_baseColor.jpeg"
    },
    {
      "uri": "textures/charcoal_baseColor.jpeg"
    },
    {
      "uri": "textures/material_baseColor.jpeg"
    },
    {
      "uri": "textures/snow_baseColor.jpeg"
    }
  ],
  "materials": [
    {
      "doubleSided": true,
      "name": "Carrot",
      "pbrMetallicRoughness": {
        "baseColorTexture": {
          "index": 0
        },
        "metallicFactor": 0.0,
        "roughnessFactor": 0.6
      }
    },
    {
      "doubleSided": true,
      "name": "branch",
      "pbrMetallicRoughness": {
        "baseColorTexture": {
          "index": 1
        },
        "metallicFactor": 0.0,
        "roughnessFactor": 0.6
      }
    },
    {
      "doubleSided": true,
      "name": "charcoal",
      "pbrMetallicRoughness": {
        "baseColorTexture": {
          "index": 2
        },
        "metallicFactor": 0.0,
        "roughnessFactor": 0.6
      }
    },
    {
      "doubleSided": true,
      "name": "material",
      "pbrMetallicRoughness": {
        "baseColorTexture": {
          "index": 3
        },
        "metallicFactor": 0.0,
        "roughnessFactor": 0.6
      }
    },
    {
      "doubleSided": true,
      "name": "hat_color",
      "pbrMetallicRoughness": {
        "baseColorFactor": [
          0.9700679790705267,
          0.0016896450308858048,
          0.0016896450308858048,
          1.0
        ],
        "metallicFactor": 0.0,
        "roughnessFactor": 0.6
      }
    },
    {
      "doubleSided": true,
      "name": "snow",
      "pbrMetallicRoughness": {
        "baseColorTexture": {
          "index": 4
        },
        "metallicFactor": 0.0,
        "roughnessFactor": 0.6
      }
    }
  ],
  "meshes": [
    {
      "name": "Object_0",
      "primitives": [
        {
          "attributes": {
            "NORMAL": 1,
            "POSITION": 0,
            "TEXCOORD_0": 2
          },
          "indices": 3,
          "material": 0,
          "mode": 4
        }
      ]
    },
    {
      "name": "Object_1",
      "primitives": [
        {
          "attributes": {
            "NORMAL": 5,
            "POSITION": 4,
            "TEXCOORD_0": 6
          },
          "indices": 7,
          "material": 5,
          "mode": 4
        }
      ]
    },
    {
      "name": "Object_2",
      "primitives": [
        {
          "attributes": {
            "NORMAL": 9,
            "POSITION": 8,
            "TEXCOORD_0": 10
          },
          "indices": 11,
          "material": 4,
          "mode": 4
        }
      ]
    },
    {
      "name": "Object_3",
      "primitives": [
        {
          "attributes": {
            "NORMAL": 13,
            "POSITION": 12,
            "TEXCOORD_0": 14
          },
          "indices": 15,
          "material": 3,
          "mode": 4
        }
      ]
    },
    {
      "name": "Object_4",
      "primitives": [
        {
          "attributes": {
            "NORMAL": 17,
            "POSITION": 16,
            "TEXCOORD_0": 18
          },
          "indices": 19,
          "material": 1,
          "mode": 4
        }
      ]
    },
    {
      "name": "Object_5",
      "primitives": [
        {
          "attributes": {
            "NORMAL": 21,
            "POSITION": 20,
            "TEXCOORD_0": 22
          },
          "indices": 23,
          "material": 1,
          "mode": 4
        }
      ]
    },
    {
      "name": "Object_6",
      "primitives": [
        {
          "attributes": {
            "NORMAL": 25,
            "POSITION": 24,
            "TEXCOORD_0": 26
          },
          "indices": 27,
          "material": 2,
          "mode": 4
        }
      ]
    }
  ],
  "nodes": [
    {
      "children": [
        1
      ],
      "matrix": [
        1.0,
        0.0,
        0.0,
        0.0,
        0.0,
        2.220446049250313e-16,
        -1.0,
        0.0,
        0.0,
        1.0,
        2.220446049250313e-16,
        0.0,
        0.0,
        0.0,
        0.0,
        1.0
      ],
      "name": "Sketchfab_model"
    },
    {
      "children": [
        2,
        3,
        4,
        5,
        6,
        7,
        8
      ],
      "name": "snowman_final.obj.cleaner.materialmerger.gles"
    },
    {
      "mesh": 0,
      "name": "Object_2"
    },
    {
      "mesh": 1,
      "name": "Object_3"
    },
    {
      "mesh": 2,
      "name": "Object_4"
    },
    {
      "mesh": 3,
      "name": "Object_5"
    },
    {
      "mesh": 4,
      "name": "Object_6"
    },
    {
      "mesh": 5,
      "name": "Object_7"
    },
    {
      "mesh": 6,
      "name": "Object_8"
    }
  ],
  "samplers": [
    {
      "magFilter": 9729,
      "minFilter": 9987,
      "wrapS": 10497,
      "wrapT": 10497
    }
  ],
  "scene": 0,
  "scenes": [
    {
      "name": "Sketchfab_Scene",
      "nodes": [
        0
      ]
    }
  ],
  "textures": [
    {
      "sampler": 0,
      "source": 0
    },
    {
      "sampler": 0,
      "source": 1
    },
    {
      "sampler": 0,
      "source": 2
    },
    {
      "sampler": 0,
      "source": 3
    },
    {
      "sampler": 0,
      "source": 4
    }
  ]
}
