<svg width="250" height="250" viewBox="0 0 250 250" fill="none" xmlns="http://www.w3.org/2000/svg">
<line x1="200" y1="5" x2="250" y2="5" stroke="black" stroke-width="10"/>
<line x1="245" y1="50" x2="245" stroke="black" stroke-width="10"/>
<line y1="-5" x2="50" y2="-5" transform="matrix(-1 0 0 1 50.0292 10)" stroke="black" stroke-width="10"/>
<line y1="-5" x2="50" y2="-5" transform="matrix(0 -1 -1 0 0 50)" stroke="black" stroke-width="10"/>
<line x1="50.0292" y1="245" x2="0.0291748" y2="245" stroke="black" stroke-width="10"/>
<line x1="5" y1="200" x2="5" y2="250" stroke="black" stroke-width="10"/>
<line y1="-5" x2="50" y2="-5" transform="matrix(1 0 0 -1 200 240)" stroke="black" stroke-width="10"/>
<line y1="-5" x2="50" y2="-5" transform="matrix(0 1 1 0 250 200)" stroke="black" stroke-width="10"/>
<rect x="29.5" y="30.5" width="190" height="190" stroke="black" stroke-width="25"/>
<path d="M81.6987 167L125 92L168.301 167H81.6987Z" stroke="black" stroke-width="25"/>
</svg>
